<?php
echo '<?xml version="1.0" encoding="utf-8"?>';
?>

<!-- Generator: Adobe Illustrator 21.1.0, SVG Export Plug-In . SVG Version: 6.00 Build 0)  -->
<svg version="1.1" id="Lager_1" xmlns="http://www.w3.org/2000/svg" xmlns:xlink="http://www.w3.org/1999/xlink" x="0px" y="0px"
	 viewBox="0 0 588 212" style="enable-background:new 0 0 588 212;" xml:space="preserve">
<g id ="textAndre">
	<path id = "letterA" d="M101.3,163.3c-1.4,0-6.1,0.5-6.1-1.9c0-4.5,12.4-20.6,12.4-39c0-7.2-6.9-10-14.2-10c-14.7,0-38,2.6-38,20.9
		c0,12.7,10.5,26.4,10.5,28.8c0,1-1,1.1-3.1,1.1h-23c-8.2,0-10.5-14.5-10.5-35.4C29.3,59,77.1,26.9,84.2,26.9
		c5.3,0,46.8,23,46.8,97.7c0,43-6.9,38.6-11.8,38.6H101.3z M58.9,91.8c0,1.9,1.1,3.1,3.1,3.1c2.9,0,18.5-4.2,32.7-4.2
		c5.6,0,8.2-0.8,8.2-5.3c0-10-11.9-30.9-18-30.9C76.2,54.5,58.9,80.1,58.9,91.8z"/>
	<path id = "letterN"d="M216.7,163.3c-11.1,0-1.1-10-26.2-60.9c-2.1-4.3-16.3-31.4-21.4-31.4c-4,0-2.9,17.5-2.9,20.8c0,45.4,6.6,61.8,6.6,70
		c0,2.1-3.1,1.4-4.5,1.4h-15c-4,0-8.9,3.1-8.9-57.3c0-79.5,8.4-76.6,11.1-76.6h12.7c6.1,0,18.4,12.9,48.5,68.6
		c0.5,0.8,1.3,2.9,2.7,2.9c1.6,0,1.3-6.9,1.3-9.2c0-30.1-8.2-56.8-8.2-60.5c0-2.3,3.5-1.8,6.6-1.8h12.2c3.5,0,11.1-2.9,11.1,76.6
		c0,60.4-4.8,57.3-8.9,57.3H216.7z"/>
	<path id = "letterD"d="M267.4,163.3c-4,0-8.9,3.1-8.9-57.3c0-79.5,8.4-76.6,11.1-76.6h27.4c20.4,0,57.3,22.4,57.3,82.8
		c0,27.9-12.7,51.2-45.2,51.2H267.4z M283.7,102.3c0,36.2,10.6,40.4,19.6,40.4c8.7,0,25-8.2,25-37.2c0-39.8-20.6-57.2-31.1-57.2
		c-11.3,0-13.5,20.8-13.5,30.9V102.3z"/>
	<path id = "letterR"d="M420.2,29.4c29.9,0,37.5,16.4,37.5,30.1c0,25.8-24.1,33.6-24.1,38.2s29,25.6,29,63.6c0,1.8-0.6,2.1-4,2.1h-18.2
		c-2.9,0-7.9,0.5-7.9-2.1c0-18.2-12.9-50.9-22.2-50.9c-4.8,0-16.6,6.6-16.6,15.6c0,12.2,6,34.3,6,35.4c0,2.7-4,1.9-5.6,1.9h-18.7
		c-4,0-8.9,3.1-8.9-57.3c0-79.5,8.4-76.6,11.1-76.6H420.2z M431.6,62.2c0-10.1-9.5-13.8-18.2-13.8c-14.7,0-21.1,5.3-20.9,33.2
		c0,3.4,0.2,9.8,5,9.8C403,91.3,431.6,77,431.6,62.2z"/>
	<path id = "letterE"d="M480.1,163.3c-8.5,0.3-6-5.3-6.8-38c0-21.6,8.9-96,13.5-96h63.4c1.9,0,7.7-0.5,7.7,2.7c0,1.3-10.3,23.8-12.4,23.8
		c-2.7,0-7.6-7.6-23.3-7.6c-11.1,0-22.9,6.6-22.9,22.1c0,3.4,0.6,9.2,5.2,9.2c5.2,0,16.6-7.6,30.1-7.6c1.9,0,7.2,0.6,7.2,3.4
		c0,0.2-9,26.4-10.9,26.4c-1.6,0-7.7-3.2-14-3.2c-8.2,0-20.1,6-20.1,21.9c0,12.9,6.8,22.2,20.3,22.2c15.9,0,25.8-10.6,29.6-10.6
		c2.4,0,13.2,27.2,13.2,28.8c0,3.1-4,2.4-6,2.4H480.1z M525-6.4c3.2-6,3.2-5.2,10.5-5.2c2.7,0,10.5-1.1,10.5,3.7
		c0,3.9-23.2,30.6-33,29.6c-1,0-2.1-0.2-2.1-1.1c0-1.1,1.4-3.4,1.9-4.2L525-6.4z"/>
</g>
</svg>
